HIERARCHY
ROOT Hips
{
	OFFSET 0.000000 8.830580 0.000000
	CHANNELS 6 Xposition Yposition Zposition Zrotation Yrotation Xrotation 
	JOINT Spine
	{
		OFFSET 0.000000 0.010000 0.000000
		CHANNELS 3 Zrotation Yrotation Xrotation
		JOINT Spine1
		{
			OFFSET 0.000000 2.459130 0.000000
			CHANNELS 3 Zrotation Yrotation Xrotation
			JOINT Neck
			{
				OFFSET 0.000000 2.484630 0.000000
				CHANNELS 3 Zrotation Yrotation Xrotation
				JOINT Head_virtual
				{
					OFFSET 0.000000 0.000000 0.000000
					CHANNELS 3 Zrotation Yrotation Xrotation
					JOINT Head
					{
						OFFSET 0.000000 0.927525 0.000000
						CHANNELS 3 Zrotation Yrotation Xrotation
						End Site
						{
							OFFSET 0.000000 0.000000 0.000000
						}
					}
				}
				JOINT LeftUpArm_virtual
				{
					OFFSET 0.000000 0.000000 0.000000
					CHANNELS 3 Zrotation Yrotation Xrotation
					JOINT LeftUpArm
					{
						OFFSET 1.248820 0.000000 0.000000
						CHANNELS 3 Zrotation Yrotation Xrotation
						JOINT LeftForeArm
						{
							OFFSET 2.597580 0.000000 0.000000
							CHANNELS 3 Zrotation Yrotation Xrotation
							JOINT LeftHand
							{
								OFFSET 2.455420 0.000000 0.000000
								CHANNELS 3 Zrotation Yrotation Xrotation
								End Site
								{
									OFFSET 0.000000 0.000000 0.000000
								}
							}
						}
					}
				}
				JOINT RightUpArm_virtual
				{
					OFFSET -0.000000 -0.000000 -0.000000
					CHANNELS 3 Zrotation Yrotation Xrotation
					JOINT RightUpArm
					{
						OFFSET -1.248820 -0.000000 -0.000000
						CHANNELS 3 Zrotation Yrotation Xrotation
						JOINT RightForeArm
						{
							OFFSET -2.597580 -0.000000 -0.000000
							CHANNELS 3 Zrotation Yrotation Xrotation
							JOINT RightHand
							{
								OFFSET -2.455420 -0.000000 -0.000000
								CHANNELS 3 Zrotation Yrotation Xrotation
								End Site
								{
									OFFSET 0.000000 0.000000 0.000000
								}
							}
						}
					}
				}
			}
		}
	}
	JOINT LeftUpLeg
	{
		OFFSET 1.271939 0.000000 0.000000
		CHANNELS 3 Zrotation Yrotation Xrotation
		JOINT LeftLowLeg
		{
			OFFSET 0.000000 -4.342910 0.000000
			CHANNELS 3 Zrotation Yrotation Xrotation
			JOINT LeftFoot
			{
				OFFSET 0.000000 -4.487670 0.000000
				CHANNELS 3 Zrotation Yrotation Xrotation
				JOINT LeftToeBase
				{
					OFFSET 0.000000 0.000000 1.515070
					CHANNELS 3 Zrotation Yrotation Xrotation
					End Site
					{
						OFFSET 0.000000 0.000000 0.000000
					}
				}
			}
		}
	}
	JOINT RightUpLeg
	{
		OFFSET -1.271939 0.000000 0.000000
		CHANNELS 3 Zrotation Yrotation Xrotation
		JOINT RightLowLeg
		{
			OFFSET 0.000000 -4.342910 0.000000
			CHANNELS 3 Zrotation Yrotation Xrotation
			JOINT RightFoot
			{
				OFFSET 0.000000 -4.487670 0.000000
				CHANNELS 3 Zrotation Yrotation Xrotation
				JOINT RightToeBase
				{
					OFFSET 0.000000 0.000000 1.515070
					CHANNELS 3 Zrotation Yrotation Xrotation
					End Site
					{
						OFFSET 0.000000 0.000000 0.000000
					}
				}
			}
		}
	}
}
MOTION
Frames: 10
Frame Time: 0.041667
-15.306936 8.895102 36.550410 178.724263 1.750326 177.594165 2.147438 1.363878 -16.096985 -6.363127 2.236937 18.311450 0.000000 0.000000 0.000000 12.732344 3.036325 11.810679 -7.569897 -6.426480 -83.310112 -25.727900 2.665410 9.148987 -45.756901 -8.868020 20.280800 0.000000 -21.101400 0.000000 9.443840 18.094400 -10.130400 30.475201 -5.857410 5.666992 47.485001 5.384960 15.729800 0.000000 23.735500 0.000000 3.849270 -9.825890 -22.336399 -4.948542 -10.352089 1.508440 0.000000 0.000000 16.213600 -9.955845 14.885310 -6.496501 0.000000 0.000000 -22.221660 3.443663 11.954846 1.586856 0.000000 0.000000 21.547600 28.457686 -8.032659 -14.856065 0.000000 0.000000 -18.249410 
-15.307430 8.895331 36.553652 178.727714 1.794918 177.569919 2.123532 1.337654 -16.018683 -6.320972 2.245282 18.332073 0.000000 0.000000 0.000000 12.714757 3.070670 11.726167 -7.522050 -6.419752 -83.408699 -25.744400 2.648600 9.143005 -45.713001 -8.856550 20.433001 0.000000 -21.035700 0.000000 10.400000 18.234800 -9.583100 30.469601 -5.875670 5.644012 47.435299 5.343600 15.669900 0.000000 23.646200 0.000000 3.741780 -9.582630 -22.254299 -4.939260 -10.266163 1.520010 0.000000 0.000000 16.194700 -9.917335 14.846924 -6.478885 0.000000 0.000000 -22.186830 3.432222 11.912920 1.576185 0.000000 0.000000 21.554300 28.445501 -7.977139 -14.812768 0.000000 0.000000 -18.249880 
-15.308121 8.895421 36.557266 178.728457 1.867670 177.578006 2.103297 1.337678 -15.948962 -6.277867 2.266332 18.309429 0.000000 0.000000 0.000000 12.718417 3.072727 11.678972 -7.459838 -6.431065 -83.511225 -25.775200 2.619900 9.223999 -45.700298 -8.869570 20.362600 0.000000 -20.981100 0.000000 11.169800 18.332199 -9.276960 30.456200 -5.910140 5.645996 47.442299 5.296360 15.549700 0.000000 23.614300 0.000000 3.592190 -9.593090 -22.429199 -4.931271 -10.196834 1.509579 0.000000 0.000000 16.160400 -9.901748 14.837623 -6.455940 0.000000 0.000000 -22.193080 3.413956 11.929933 1.517718 0.000000 0.000000 21.586201 28.440171 -7.936271 -14.782663 0.000000 0.000000 -18.250440 
-15.309084 8.895781 36.561047 178.730805 1.945973 177.582873 2.085613 1.343441 -15.890884 -6.239470 2.294935 18.317113 0.000000 0.000000 0.000000 12.766869 3.055570 11.651914 -7.438786 -6.425419 -83.664378 -25.798000 2.599330 9.303986 -45.748901 -8.914050 20.212299 0.000000 -20.905199 0.000000 11.652600 18.440800 -9.442550 30.413401 -5.952930 5.648010 47.521599 5.296830 15.512100 0.000000 23.531401 0.000000 3.312530 -9.620260 -22.555799 -4.930401 -10.164130 1.512797 0.000000 0.000000 16.108200 -9.918258 14.863634 -6.443369 0.000000 0.000000 -22.180700 3.391972 11.936116 1.463724 0.000000 0.000000 21.605000 28.410316 -7.896055 -14.727746 0.000000 0.000000 -18.279060 
-15.309374 8.896311 36.563846 178.726227 2.018075 177.603390 2.056091 1.345788 -15.860690 -6.217310 2.323594 18.317595 0.000000 0.000000 0.000000 12.809978 3.062446 11.663906 -7.363201 -6.417800 -83.806112 -25.798100 2.602340 9.380005 -45.839500 -8.944640 20.015200 0.000000 -20.880899 0.000000 11.741400 18.687500 -10.202000 30.399300 -5.982750 5.656006 47.611698 5.270870 15.439400 0.000000 23.505400 0.000000 2.963010 -9.691580 -22.209999 -4.921216 -10.070962 1.490206 0.000000 0.000000 16.080799 -9.898586 14.836963 -6.401173 0.000000 0.000000 -22.212230 3.381846 12.023061 1.410620 0.000000 0.000000 21.616501 28.409224 -7.916313 -14.711008 0.000000 0.000000 -18.290530 
-15.310309 8.896735 36.567267 178.721854 2.064948 177.608604 2.037179 1.332431 -15.827892 -6.208603 2.333425 18.355362 0.000000 0.000000 0.000000 12.869670 3.044174 11.647437 -7.327804 -6.393465 -83.894908 -25.811001 2.643080 9.377014 -45.936401 -8.975970 19.825800 0.000000 -20.886900 0.000000 11.622800 18.934900 -11.180700 30.438900 -6.008160 5.644989 47.620399 5.301760 15.450800 0.000000 23.601200 0.000000 2.595630 -10.174900 -22.245501 -4.930566 -10.073216 1.500505 0.000000 0.000000 16.012199 -9.895752 14.885009 -6.372274 0.000000 0.000000 -22.218690 3.366699 12.055840 1.393122 0.000000 0.000000 21.581600 28.403017 -7.919407 -14.701423 0.000000 0.000000 -18.258510 
-15.310582 8.897331 36.570479 178.725543 2.093246 177.617533 2.019629 1.325660 -15.796639 -6.226437 2.336468 18.376724 0.000000 0.000000 0.000000 12.992958 2.989420 11.647136 -7.347307 -6.330030 -83.945386 -25.810801 2.653100 9.372986 -46.035702 -8.977860 19.609900 0.000000 -20.881001 0.000000 11.250400 19.078199 -12.486100 30.421200 -6.003560 5.631012 47.788502 5.244900 15.190300 0.000000 23.580601 0.000000 2.246790 -10.208500 -21.893999 -4.916935 -10.016498 1.486208 0.000000 0.000000 15.977600 -9.929846 14.839449 -6.350847 0.000000 0.000000 -22.209180 3.367965 12.086221 1.374902 0.000000 0.000000 21.549700 28.409517 -7.946535 -14.681500 0.000000 0.000000 -18.281360 
-15.311045 8.897584 36.574382 178.740209 2.108424 177.614183 2.021562 1.317194 -15.750370 -6.253932 2.320630 18.398329 0.000000 0.000000 0.000000 13.054658 2.990920 11.638230 -7.311417 -6.279517 -83.974858 -25.807501 2.680820 9.377991 -46.132198 -9.002650 19.375401 0.000000 -20.902800 0.000000 10.824300 19.284901 -13.722800 30.415100 -6.016380 5.639008 47.915001 5.289200 15.069200 0.000000 23.550501 0.000000 2.018330 -10.307200 -21.774200 -4.902866 -10.009003 1.462818 0.000000 0.000000 15.984300 -9.903320 14.866649 -6.338401 0.000000 0.000000 -22.201780 3.385466 12.155911 1.352859 0.000000 0.000000 21.548000 28.394119 -8.016119 -14.673243 0.000000 0.000000 -18.277130 
-15.311903 8.898093 36.579307 178.758389 2.176650 177.666947 2.042999 1.345316 -15.747754 -6.300395 2.318238 18.419516 0.000000 0.000000 0.000000 13.163938 2.939139 11.624260 -7.311085 -6.223364 -84.016575 -25.801201 2.680430 9.410004 -46.229500 -9.032180 19.121401 0.000000 -20.922600 0.000000 10.194700 19.347300 -14.843600 30.393000 -5.990740 5.605988 48.051201 5.359320 15.079600 0.000000 23.394699 0.000000 1.882870 -10.238600 -22.456800 -4.877297 -9.982166 1.371872 0.000000 0.000000 16.008499 -9.897370 14.900067 -6.331312 0.000000 0.000000 -22.211270 3.373154 12.175166 1.255013 0.000000 0.000000 21.551399 28.407052 -7.980862 -14.623041 0.000000 0.000000 -18.270650 
-15.311980 8.898399 36.582950 178.768633 2.241571 177.679363 2.028066 1.331666 -15.755366 -6.267386 2.342104 18.498112 0.000000 0.000000 0.000000 13.214721 2.889159 11.560229 -7.280818 -6.202520 -84.004771 -25.796600 2.689690 9.401001 -46.340302 -9.051970 19.053200 0.000000 -20.980700 0.000000 10.119200 19.586800 -14.738800 30.461500 -5.952960 5.605988 47.979401 5.397930 14.990600 0.000000 23.517500 0.000000 1.843600 -10.553600 -23.221300 -4.855127 -9.889697 1.355354 0.000000 0.000000 15.975200 -9.874501 14.886125 -6.310199 0.000000 0.000000 -22.219470 3.366648 12.187357 1.211181 0.000000 0.000000 21.550301 28.389294 -7.946160 -14.578936 0.000000 0.000000 -18.266470 
